# xmcd
#
# Track frame offsets: 
#        150
#        17231
#        32525
#        49587
#        64586
#        81404
#        99165
#        117659
#        134758
#        149458
#        164635
#        181869
#        199192
#        216892
#        244794
#
# Disc length: 3810 seconds
#
# Revision: 0
# Processed by: cddbd v1.5.2PL0 Copyright (c) Steve Scherf et al.
# Submitted via: ExactAudioCopy v1.1
#
DISCID=dc0ee00f
DTITLE=Ольга Плотникова - Так бывает
DYEAR=2007
DGENRE=
TTITLE0=Просто догнать
TTITLE1=Пуговица
TTITLE2=Показалось
TTITLE3=Синие глаза
TTITLE4=Так бывает
TTITLE5=Падает снег
TTITLE6=С Днем Роженья, мама
TTITLE7=Новый Год
TTITLE8=Лишь для тебя
TTITLE9=Знали
TTITLE10=Алые паруса
TTITLE11=Показалось (RMX)
TTITLE12=Падает снег (караоке-версия)
TTITLE13=Так бывает (караоке-версия)
TTITLE14=multimedia
EXTD=
EXTT0=
EXTT1=
EXTT2=
EXTT3=
EXTT4=
EXTT5=
EXTT6=
EXTT7=
EXTT8=
EXTT9=
EXTT10=
EXTT11=
EXTT12=
EXTT13=
EXTT14=
PLAYORDER=
